# xmcd
#
# Track frame offsets:
#	150
#	16710
#	30492
#	49077
#	64780
#	81037
#	97010
#	113402
#	127285
#	144135
#
# Disc length: 2156 seconds
#
# Revision: 2
# Processed by: cddbd v1.5.1PL2 Copyright (c) Steve Scherf et al.
# Submitted via: dBpowerAMP V4.0
#
DISCID=77086a0a
DTITLE=Reba McEntire - What If It's You
DYEAR=1996
DGENRE=Country
TTITLE0=How Was I to Know
TTITLE1=The Fear of Being Alone
TTITLE2=What if it's You
TTITLE3=I'd Rather Ride Around with You
TTITLE4=It Don't Matter
TTITLE5=State of Grace
TTITLE6=Clost to Crazy
TTITLE7=She's Callin' it Love
TTITLE8=Just Looking for Him
TTITLE9=Never Had a Reason To
EXTD=
EXTT0=
EXTT1=
EXTT2=
EXTT3=
EXTT4=
EXTT5=
EXTT6=
EXTT7=
EXTT8=
EXTT9=
PLAYORDER=
